<svg width="71.031281" height="72.017822" viewBox="0 0 71.0313 72.0178" fill="none" xmlns="http://www.w3.org/2000/svg" xmlns:xlink="http://www.w3.org/1999/xlink">
	<desc>
			Created with Pixso.
	</desc>
	<defs/>
	<path id="Vector" d="M35.51 0C15.93 0 0 16.15 0 36C0 55.86 15.93 72.01 35.51 72.01C55.1 72.01 71.03 55.86 71.03 36C71.03 16.15 55.1 0 35.51 0ZM35.51 69.01C17.56 69.01 2.95 54.2 2.95 36C2.95 17.8 17.56 3 35.51 3C53.46 3 68.07 17.8 68.07 36C68.07 54.2 53.46 69.01 35.51 69.01Z" fill="#FFFFFF" fill-opacity="1.000000" fill-rule="nonzero"/>
	<path id="Vector" d="M49.63 34.74L28.91 21.24C28.46 20.94 27.87 20.92 27.4 21.18C26.93 21.45 26.63 21.95 26.63 22.5L26.63 49.51C26.63 50.06 26.93 50.56 27.4 50.82C27.62 50.95 27.87 51.01 28.11 51.01C28.39 51.01 28.67 50.93 28.91 50.77L49.63 37.27C50.05 36.99 50.31 36.51 50.31 36C50.31 35.49 50.05 35.02 49.63 34.74ZM29.59 46.76L29.59 25.25L46.09 36L29.59 46.76Z" fill="#FFFFFF" fill-opacity="1.000000" fill-rule="nonzero"/>
</svg>
